<svg width="16" height="13" viewBox="0 0 16 13" fill="none" xmlns="http://www.w3.org/2000/svg">
<g clip-path="url(#clip0_349_1341)">
<path d="M4.63035 1.4201C4.78201 1.05092 5.12089 0.8125 5.47636 0.8125H14.2185C14.5953 0.8125 14.9342 1.05092 15.0859 1.4201C15.2375 1.78902 15.1712 2.21914 14.9152 2.5157L11.3748 6.63965V10.5625C11.3748 10.8697 11.2136 11.1516 10.9553 11.2887C10.6994 11.4258 10.3913 11.3979 10.1614 11.2125L8.64477 9.99375C8.45282 9.84141 8.34144 9.60019 8.34144 9.34375V6.63965L4.80097 2.5157C4.54503 2.21914 4.45735 1.78902 4.63035 1.4201Z" fill="#397FF7"/>
<path opacity="0.4" d="M0.947477 2.4375H3.88863C3.96446 2.66602 4.08295 2.8793 4.24172 3.06465L7.58313 6.93418V7.38105L6.8248 8.26465V11.375C6.8248 11.6822 6.66365 11.9641 6.40534 12.1012C6.14941 12.2383 5.84133 12.2104 5.61146 12.025L4.0948 10.8063C3.90284 10.6539 3.79146 10.4127 3.79146 10.1562V8.26465L0.249811 4.14121C-0.004871 3.84414 -0.0717466 3.41504 0.0794225 3.04434C0.230615 2.67617 0.571154 2.4375 0.947477 2.4375Z" fill="#397FF7"/>
</g>
<defs>
<clipPath id="clip0_349_1341">
<rect width="15.1667" height="13" fill="white"/>
</clipPath>
</defs>
</svg>
