<svg width="18" height="15" viewBox="0 0 18 15" fill="none" xmlns="http://www.w3.org/2000/svg">
<path d="M2.31046 1.0993C2.49609 0.973584 2.71996 0.900178 2.96156 0.900178H15.0272C15.6741 0.900178 16.2 1.42527 16.2 2.07299C16.2 2.34299 16.1072 2.60455 15.9356 2.81268L11.4778 8.2858L17.7412 13.1936C18.0337 13.4242 18.0872 13.8489 17.8566 14.1414C17.6259 14.4339 17.2012 14.4874 16.9087 14.2567L0.258632 1.20646C-0.0347675 0.976397 -0.0862082 0.552272 0.14377 0.258816C0.373776 -0.0345844 0.797901 -0.0860251 1.09153 0.143953L2.31046 1.0993ZM3.77999 2.25018L10.4147 7.42799L14.6531 2.25018H3.77999ZM9.9 11.6777V10.4992L11.25 11.5652V12.5917C11.25 13.0924 10.8422 13.5002 10.3416 13.5002C10.1362 13.5002 9.93656 13.4299 9.77625 13.278L7.17468 11.2389C6.9075 11.0252 6.75 10.7017 6.75 10.3586V8.01862L8.1 9.08174V10.2489L9.9 11.6777Z" fill="#35383D"/>
</svg>
