<svg width="20" height="16" viewBox="0 0 20 16" fill="none" xmlns="http://www.w3.org/2000/svg">
<g clip-path="url(#clip0_346_1293)">
<path d="M16.2062 3.79376L19.7062 7.29376C20.0969 7.68439 20.0969 8.31564 19.7062 8.70626L16.2062 12.2063C15.8156 12.5969 15.1844 12.5969 14.7937 12.2063C14.4031 11.8156 14.4031 11.1844 14.7937 10.7938L17.5844 8.00001L14.7937 5.20626C14.4031 4.81564 14.4031 4.18439 14.7937 3.79376C15.1844 3.40314 15.8156 3.40314 16.2062 3.79376ZM5.20625 5.20626L2.41406 8.00001L5.20625 10.7938C5.59687 11.1844 5.59687 11.8156 5.20625 12.2063C4.81562 12.5969 4.18437 12.5969 3.79375 12.2063L0.292875 8.70626C-0.097625 8.31564 -0.097625 7.68439 0.292875 7.29376L3.79375 3.79376C4.18437 3.40314 4.81562 3.40314 5.20625 3.79376C5.59687 4.18439 5.59687 4.81564 5.20625 5.20626Z" fill="#0881FF"/>
<path opacity="0.4" d="M12.9626 1.27472L8.9626 15.275C8.80947 15.8063 8.25635 16.1125 7.7251 15.9625C7.19385 15.8094 6.8876 15.2563 7.0376 14.725L11.0376 0.725343C11.1907 0.19428 11.7438 -0.11322 12.2751 0.0385303C12.8063 0.190249 13.1126 0.74378 12.9626 1.27472Z" fill="#0881FF"/>
</g>
<defs>
<clipPath id="clip0_346_1293">
<rect width="20" height="16" fill="white"/>
</clipPath>
</defs>
</svg>
