<svg width="20" height="16" viewBox="0 0 20 16" fill="none" xmlns="http://www.w3.org/2000/svg">
<g clip-path="url(#clip0_346_1317)">
<path opacity="0.4" d="M17.4406 1.97199L16.7188 1.28043C16.4281 0.987618 16.4281 0.512618 16.7188 0.219806C17.0125 -0.0731006 17.4875 -0.0731006 17.7531 0.219774L19.7531 2.21949C19.9219 2.36012 20 2.55106 20 2.74981C20 2.94887 19.9219 3.14074 19.7531 3.25324L17.7531 5.25324C17.4875 5.57199 17.0125 5.57199 16.7188 5.25324C16.4281 4.98762 16.4281 4.51262 16.7188 4.21887L17.4406 3.47199H12C11.5844 3.47199 11.25 3.16262 11.25 2.74981C11.25 2.33574 11.5844 1.99981 12 1.99981L17.4406 1.97199ZM7.97188 12.472C8.41563 12.472 8.72188 12.8345 8.72188 13.222C8.72188 13.6626 8.41563 13.972 7.97188 13.972L2.56094 14.0001L3.25312 14.7189C3.57187 15.0126 3.57187 15.4876 3.25312 15.7532C2.9875 16.072 2.5125 16.072 2.21969 15.7532L0.219656 13.7532C0.079 13.6407 -9.37417e-06 13.4501 8.3421e-10 13.222C8.3421e-10 13.0501 0.0790313 12.8595 0.219688 12.7189L2.21969 10.7189C2.5125 10.4282 2.9875 10.4282 3.25312 10.7189C3.57187 11.0126 3.57187 11.4876 3.25312 11.7532L2.56063 12.5001L7.97188 12.472Z" fill="#0881FF"/>
<path d="M10.375 2.74969C10.375 3.64687 11.1031 4.34688 12 4.34688H15.0344C15.1406 4.92188 15.4656 5.39062 15.9187 5.68437C15.9719 5.75937 16.0344 5.83125 16.1 5.9C16.7344 6.53438 17.7656 6.53438 18.4 5.9L19 5.29688V12C19 13.1031 18.1031 14 17 14H9.44063C9.55937 13.775 9.59688 13.5219 9.59688 13.2219C9.59688 12.3531 8.89688 11.5969 7.97188 11.5969H4.96562C4.85937 11.0781 4.53438 10.6094 4.08125 10.3156C4.02813 10.2406 3.96563 10.1688 3.9 10.1C3.26562 9.46563 2.23563 9.46563 1.60094 10.1L1 10.7031V4C1 2.89531 1.89531 2 3 2H10.5594C10.4406 2.22437 10.375 2.47937 10.375 2.74969ZM3 3.97187V5.97188C4.10313 5.97188 5 5.10313 5 3.97187H3ZM17 9.97188C15.8969 9.97188 15 10.8969 15 12H17V9.97188ZM10 4.97188C8.31563 4.97188 7 6.31563 7 7.97188C7 9.65625 8.31563 11 10 11C11.6562 11 13 9.65625 13 7.97188C13 6.31563 11.6562 4.97188 10 4.97188Z" fill="#0881FF"/>
</g>
<defs>
<clipPath id="clip0_346_1317">
<rect width="20" height="16" fill="white"/>
</clipPath>
</defs>
</svg>
