<svg width="17" height="16" viewBox="0 0 17 16" fill="none" xmlns="http://www.w3.org/2000/svg">
<path d="M15.9464 14.7552L11.8768 10.6866C12.7575 9.60877 13.2435 8.25158 13.2435 6.7699C13.2435 3.28128 10.4151 0.454559 6.92643 0.454559C3.43778 0.454559 0.636719 3.28219 0.636719 6.7699C0.636719 10.2576 3.46481 13.0852 6.92643 13.0852C8.4082 13.0852 9.76758 12.5718 10.8442 11.7177L14.9138 15.7863C15.0839 15.9302 15.2722 16 15.4575 16C15.6427 16 15.8304 15.9288 15.9729 15.7865C16.2562 15.5021 16.2562 15.0406 15.9464 14.7552ZM2.0945 6.7699C2.0945 4.09135 4.27449 1.91195 6.95376 1.91195C9.63304 1.91195 11.813 4.09135 11.813 6.7699C11.813 9.44846 9.63304 11.6279 6.95376 11.6279C4.27449 11.6279 2.0945 9.44785 2.0945 6.7699Z" fill="white"/>
</svg>
