<svg width="14" height="14" viewBox="0 0 14 14" fill="none" xmlns="http://www.w3.org/2000/svg">
<path d="M1.75 0.875C0.784765 0.875 0 1.6584 0 2.625V11.375C0 12.3402 0.784765 13.125 1.75 13.125H12.25C13.2166 13.125 14 12.3402 14 11.375V2.625C14 1.6584 13.2166 0.875 12.25 0.875H1.75ZM1.75 2.1875H12.25C12.4917 2.1875 12.6875 2.38328 12.6875 2.625V4.375H1.3125V2.625C1.3125 2.38328 1.50937 2.1875 1.75 2.1875ZM12.25 11.8125H10.0625V5.6875H12.6875V11.375C12.6875 11.6156 12.4917 11.8125 12.25 11.8125ZM8.75 11.8125H1.75C1.50937 11.8125 1.3125 11.6156 1.3125 11.375V5.6875H8.75V11.8125Z" fill="#5A8DEE"/>
</svg>
